<svg xmlns="http://www.w3.org/2000/svg" width="15" height="15" viewBox="0 0 15 15">
  <path fill="#052464" d="M12.4016309,8.52612305 L11.7838184,8.34960938 C12.650332,7.14521484 12.7734375,5.92658203 12.7734375,5.2734375 C12.7734375,2.36276367 10.4145703,0 7.5,0 C4.58932617,0 2.2265625,2.35886719 2.2265625,5.2734375 C2.2265625,5.92672852 2.34955078,7.14503906 3.21618164,8.34960938 L2.59836914,8.52612305 C0.6234375,9.09038086 0,10.8864258 0,11.9708496 L0,12.7232227 C0,13.9786523 1.02134766,15 2.27677734,15 L12.7231934,15 C13.9786523,15 15,13.9786523 15,12.7232227 L15,11.9708496 C15,10.9089258 14.3928223,9.09503906 12.4016309,8.52612305 Z M7.5,1.40625 C9.63580078,1.40625 11.3671875,3.13766602 11.3671875,5.2734375 C11.3671875,7.40920898 9.63580078,9.140625 7.5,9.140625 C5.36419922,9.140625 3.6328125,7.40920898 3.6328125,5.2734375 C3.6328125,3.13766602 5.36419922,1.40625 7.5,1.40625 Z M13.59375,12.7232227 C13.59375,13.2039844 13.2039844,13.59375 12.7232227,13.59375 L2.27677734,13.59375 C1.79601562,13.59375 1.40625,13.2039844 1.40625,12.7232227 L1.40625,11.9708496 C1.40625,10.9991602 2.05040039,10.1451855 2.98470703,9.87826172 L4.33538086,9.49236328 C4.76610352,9.81615234 5.87188477,10.546875 7.5,10.546875 C9.12811523,10.546875 10.2338965,9.81615234 10.6646191,9.49236328 L12.015293,9.87826172 C12.9495996,10.1452148 13.59375,10.9991602 13.59375,11.9708496 L13.59375,12.7232227 Z"/>
</svg>
