<?xml version="1.0" encoding="UTF-8"?>
<svg width="19px" height="13px" viewBox="0 0 19 13" version="1.1" xmlns="http://www.w3.org/2000/svg" xmlns:xlink="http://www.w3.org/1999/xlink">
    <!-- Generator: Sketch 48.2 (47327) - http://www.bohemiancoding.com/sketch -->
    <title>Shape</title>
    <desc>Created with Sketch.</desc>
    <defs></defs>
    <g id="Gallery/item-open" stroke="none" stroke-width="1" fill="none" fill-rule="evenodd" transform="translate(-88.000000, -138.000000)">
        <path d="M100.794379,138.195511 C100.535535,137.93483 100.104732,137.93483 99.8368371,138.195511 C99.577993,138.447385 99.577993,138.866588 99.8368371,139.117876 L104.692124,143.842426 L88.6703398,143.842426 C88.2968561,143.843013 88,144.131876 88,144.495303 C88,144.85873 88.2968561,145.156987 88.6703398,145.156987 L104.692124,145.156987 L99.8368371,149.872731 C99.577993,150.133412 99.577993,150.553202 99.8368371,150.804489 C100.104732,151.06517 100.536138,151.06517 100.794379,150.804489 L106.799079,144.961476 C107.066974,144.709602 107.066974,144.290398 106.799079,144.039111 L100.794379,138.195511 Z" id="Shape" fill="#F76C5E" fill-rule="nonzero" transform="translate(97.500000, 144.500000) scale(-1, 1) translate(-97.500000, -144.500000) "></path>
    </g>
</svg>