<svg xmlns="http://www.w3.org/2000/svg" width="16" height="17" viewBox="0 0 16 17">
  <path fill="#052464" stroke="#052464" stroke-width=".4" d="M4.51088504,11.1932152 L13.8953811,11.1932152 C14.9594941,11.1932152 15.8275862,10.3267395 15.8275862,9.26460803 L15.8275862,5.32354112 C15.8275862,5.32004727 15.8275862,5.31305956 15.8275862,5.30956571 C15.8275862,5.29908415 15.8275862,5.29209644 15.8275862,5.28161488 C15.8275862,5.27462717 15.8275862,5.26763947 15.8240858,5.26065176 C15.8240858,5.25366405 15.8205855,5.24318249 15.8205855,5.23619478 C15.8205855,5.22920708 15.8170851,5.22221937 15.8170851,5.21523166 C15.8135847,5.20824395 15.8135847,5.20125625 15.8100843,5.19077468 C15.806584,5.18378698 15.806584,5.17679927 15.8030836,5.16981156 C15.7995832,5.16282386 15.7995832,5.15583615 15.7960829,5.14884844 C15.7925825,5.14186073 15.7890821,5.13487303 15.7855817,5.12439147 C15.7820814,5.11740376 15.778581,5.11041605 15.7750806,5.1069222 C15.7715803,5.09993449 15.7680799,5.09294678 15.7645795,5.08595908 C15.7610791,5.07897137 15.7575788,5.07547751 15.7540784,5.06848981 C15.750578,5.0615021 15.7435773,5.05451439 15.7400769,5.04752669 C15.7365765,5.04053898 15.7330762,5.03704512 15.7260754,5.03005742 C15.7225751,5.02306971 15.7155743,5.01957586 15.7120739,5.01258815 C15.7085736,5.00560044 15.7015728,5.00210659 15.6980725,4.99511888 C15.6945721,4.98813117 15.6875713,4.98463732 15.684071,4.98114347 C15.6770702,4.97415576 15.6735699,4.97066191 15.6665691,4.9636742 C15.6595684,4.96018034 15.656068,4.95319264 15.6490673,4.94969878 C15.6420665,4.94620493 15.6350658,4.93921722 15.628065,4.93572337 C15.6210643,4.93222952 15.6175639,4.92873566 15.6105632,4.92524181 C15.6035624,4.92174795 15.5965617,4.9182541 15.5895609,4.91126639 C15.5825602,4.90777254 15.5755595,4.90427869 15.5685587,4.90078483 C15.561558,4.89729098 15.5545572,4.89379713 15.5475565,4.89030327 C15.5405557,4.88680942 15.533555,4.88331556 15.5265543,4.87982171 C15.5195535,4.87632786 15.5125528,4.87632786 15.505552,4.872834 C15.4985513,4.86934015 15.4880502,4.8658463 15.4810494,4.8658463 C15.4740487,4.8658463 15.4670479,4.86235244 15.4635476,4.86235244 C15.4530465,4.85885859 15.4460457,4.85885859 15.4355446,4.85885859 C15.4320442,4.85885859 15.4285439,4.85536474 15.4215431,4.85536474 L3.52728064,3.21674738 L3.52728064,1.56066075 C3.52728064,1.54319148 3.52728064,1.52572221 3.52378027,1.5117468 C3.52378027,1.50825294 3.52378027,1.50475909 3.5202799,1.49777138 C3.5202799,1.48728982 3.51677952,1.47680826 3.51677952,1.4663267 C3.51327915,1.45584514 3.51327915,1.44885743 3.50977878,1.43837587 C3.50977878,1.43138816 3.50627841,1.42789431 3.50627841,1.4209066 C3.50277804,1.41042504 3.49927767,1.39994348 3.4957773,1.38946192 C3.4957773,1.38596807 3.49227692,1.37898036 3.49227692,1.37548651 C3.48877655,1.36500495 3.48527618,1.35801724 3.47827544,1.34753568 C3.47477507,1.34404182 3.47477507,1.33705412 3.47127469,1.33356026 C3.46777432,1.32657256 3.46427395,1.31958485 3.45727321,1.31259714 C3.45377284,1.30560943 3.45027247,1.30211558 3.44677209,1.29512787 C3.44327172,1.28814017 3.43977135,1.28464631 3.43627098,1.2776586 C3.43277061,1.2706709 3.42576986,1.26368319 3.42226949,1.25669548 C3.41876912,1.25320163 3.41526875,1.24970778 3.41176838,1.24621392 C3.40476764,1.23922621 3.39776689,1.23223851 3.39076615,1.2252508 C3.38726578,1.22175695 3.38376541,1.21826309 3.38026503,1.21476924 C3.37326429,1.20778153 3.36626355,1.20079382 3.35576243,1.19380612 C3.35226206,1.19031226 3.34526132,1.18681841 3.34176095,1.18332456 C3.33476021,1.17633685 3.32775946,1.17284299 3.32075872,1.16585529 C3.3102576,1.15886758 3.29975649,1.15187987 3.29275575,1.14838602 C3.28925538,1.14489217 3.285755,1.14489217 3.28225463,1.14139831 C3.26825315,1.1344106 3.25075129,1.1274229 3.2367498,1.12043519 L0.656975982,0.0373405608 C0.415450346,-0.0639811948 0.138920995,0.0478221217 0.0374102208,0.288898023 C-0.0641005537,0.529973925 0.0479113354,0.805988362 0.289436971,0.907310118 L2.57867995,1.87161372 L2.57867995,4.00985215 L2.57867995,4.34875596 L2.57867995,6.94818307 L2.57867995,9.27159574 L2.57867995,12.2064328 C2.57867995,13.1847118 3.31375798,13.9952859 4.26235866,14.1175707 C4.09084046,14.4040667 3.98932968,14.7394767 3.98932968,15.0958498 C3.98932968,16.1474997 4.84692071,17 5.89703217,17 C6.94714363,17 7.80473465,16.1440059 7.80473465,15.0958498 C7.80473465,14.7464644 7.71022462,14.4145483 7.54220679,14.13504 L11.7916578,14.13504 C11.62364,14.4180422 11.52913,14.7464644 11.52913,15.0958498 C11.52913,16.1474997 12.386721,17 13.4368324,17 C14.4869439,17 15.3445349,16.1440059 15.3445349,15.0958498 C15.3445349,14.0476937 14.4869439,13.1916995 13.4368324,13.1916995 L4.51088504,13.1916995 C3.96482708,13.1916995 3.52378027,12.7479801 3.52378027,12.2064328 L3.52378027,10.9276824 C3.81081073,11.0953873 4.15034677,11.1932152 4.51088504,11.1932152 Z M6.86313471,15.0923559 C6.86313471,15.6234217 6.42908864,16.0531657 5.90053254,16.0531657 C5.37197644,16.0531657 4.93793037,15.6199278 4.93793037,15.0923559 C4.93793037,14.564784 5.37197644,14.1315462 5.90053254,14.1315462 C6.42908864,14.1315462 6.86313471,14.5612902 6.86313471,15.0923559 Z M14.402935,15.0923559 C14.402935,15.6234217 13.9688889,16.0531657 13.4403328,16.0531657 C12.9117767,16.0531657 12.4777306,15.6199278 12.4777306,15.0923559 C12.4777306,14.564784 12.9117767,14.1315462 13.4403328,14.1315462 C13.9688889,14.1315462 14.402935,14.5612902 14.402935,15.0923559 Z M13.8953811,10.2498748 L4.51088504,10.2498748 C3.96482708,10.2498748 3.52378027,9.80615535 3.52378027,9.26460803 L3.52378027,6.94119536 L3.52378027,4.34176825 L3.52378027,4.16707557 L14.8824859,5.72882815 L14.8824859,9.26111418 C14.8824859,9.8096492 14.4379387,10.2498748 13.8953811,10.2498748 Z"/>
</svg>
