<?xml version="1.0" encoding="UTF-8"?>
<svg width="15px" height="15px" viewBox="0 0 15 15" version="1.1" xmlns="http://www.w3.org/2000/svg" xmlns:xlink="http://www.w3.org/1999/xlink">
    <!-- Generator: Sketch 49.3 (51167) - http://www.bohemiancoding.com/sketch -->
    <title>icon/instagram</title>
    <desc>Created with Sketch.</desc>
    <defs></defs>
    <g id="Page-1" stroke="none" stroke-width="1" fill="none" fill-rule="evenodd">
        <g id="Customization/Panel-opened" transform="translate(-1234.000000, -733.000000)" fill="#AEAEAE" fill-rule="nonzero">
            <g id="share" transform="translate(1137.000000, 731.000000)">
                <g id="social-links" transform="translate(46.000000, 2.000000)">
                    <g id="icon/instagram" transform="translate(51.000000, 0.000000)">
                        <path d="M7.4725,3.64727171 C5.3525,3.64727171 3.6425,5.36108018 3.6425,7.48580178 C3.6425,9.61052339 5.3525,11.3243318 7.4725,11.3243318 C9.5925,11.3243318 11.3025,9.61052339 11.3025,7.48580178 C11.3025,5.36108018 9.5925,3.64727171 7.4725,3.64727171 Z M7.4725,9.98134744 C6.1025,9.98134744 4.9825,8.86219376 4.9825,7.48580178 C4.9825,6.1094098 6.09916667,4.99025612 7.4725,4.99025612 C8.84583333,4.99025612 9.9625,6.1094098 9.9625,7.48580178 C9.9625,8.86219376 8.8425,9.98134744 7.4725,9.98134744 Z M12.3525,3.49025612 C12.3525,3.98802895 11.9525,4.38557906 11.4591667,4.38557906 C10.9625,4.38557906 10.5658333,3.9846882 10.5658333,3.49025612 C10.5658333,2.99582405 10.9658333,2.59493318 11.4591667,2.59493318 C11.9525,2.59493318 12.3525,2.99582405 12.3525,3.49025612 Z M14.8891667,4.39894209 C14.8325,3.19961024 14.5591667,2.13724944 13.6825,1.26197105 C12.8091667,0.38669265 11.7491667,0.112750557 10.5525,0.0526169265 C9.31916667,-0.0175389755 5.6225,-0.0175389755 4.38916667,0.0526169265 C3.19583333,0.1094098 2.13583333,0.383351893 1.25916667,1.25863029 C0.3825,2.13390869 0.1125,3.19626949 0.0525,4.39560134 C-0.0175,5.63168151 -0.0175,9.33658129 0.0525,10.5726615 C0.109166667,11.7719933 0.3825,12.8343541 1.25916667,13.7096325 C2.13583333,14.5849109 3.1925,14.858853 4.38916667,14.9189866 C5.6225,14.9891425 9.31916667,14.9891425 10.5525,14.9189866 C11.7491667,14.8621938 12.8091667,14.5882517 13.6825,13.7096325 C14.5558333,12.8343541 14.8291667,11.7719933 14.8891667,10.5726615 C14.9591667,9.33658129 14.9591667,5.63502227 14.8891667,4.39894209 Z M13.2958333,11.8989421 C13.0358333,12.5537305 12.5325,13.0581849 11.8758333,13.3221047 C10.8925,13.7129733 8.55916667,13.6227728 7.4725,13.6227728 C6.38583333,13.6227728 4.04916667,13.7096325 3.06916667,13.3221047 C2.41583333,13.0615256 1.9125,12.5570713 1.64916667,11.8989421 C1.25916667,10.9134187 1.34916667,8.57488864 1.34916667,7.48580178 C1.34916667,6.39671492 1.2625,4.0548441 1.64916667,3.07266147 C1.90916667,2.41787305 2.4125,1.91341871 3.06916667,1.64949889 C4.0525,1.25863029 6.38583333,1.34883073 7.4725,1.34883073 C8.55916667,1.34883073 10.8958333,1.26197105 11.8758333,1.64949889 C12.5291667,1.91007795 13.0325,2.41453229 13.2958333,3.07266147 C13.6858333,4.05818486 13.5958333,6.39671492 13.5958333,7.48580178 C13.5958333,8.57488864 13.6858333,10.9167595 13.2958333,11.8989421 Z" id="Shape"></path>
                    </g>
                </g>
            </g>
        </g>
    </g>
</svg>