<svg id="Calque_1" data-name="Calque 1" xmlns="http://www.w3.org/2000/svg" viewBox="0 0 1000 177"><defs><style>.cls-1{fill:#052464;}</style></defs><title>Logo-bleu</title><path class="cls-1" d="M103.64,110.29v54.56a11.79,11.79,0,0,1-11.76,11.76,11.59,11.59,0,0,1-11.52-11.76V110.29a28.58,28.58,0,0,0-57.15,0v54.56a11.64,11.64,0,1,1-23.28,0V11.75A11.54,11.54,0,0,1,11.45.22,11.6,11.6,0,0,1,23.21,11.75V67a51.35,51.35,0,0,1,28.46-8.46A51.94,51.94,0,0,1,103.64,110.29Z"/><path class="cls-1" d="M219.81,70.31v59.26a47.63,47.63,0,0,1-95.25,0V70.31a11.65,11.65,0,0,1,23.29,0V129.1a24.34,24.34,0,1,0,48.68,0V70.31a11.64,11.64,0,0,1,23.28,0Z"/><path class="cls-1" d="M537,58.78a11.6,11.6,0,0,0-11.76,11.53V129.1a24.35,24.35,0,1,1-48.69,0V70.31a11.6,11.6,0,0,0-11.75-11.53h-.11A11.6,11.6,0,0,0,452.9,70.31V129.1a24.34,24.34,0,1,1-48.68,0V70.31a11.65,11.65,0,0,0-23.29,0v59.26a47.58,47.58,0,0,0,83.77,30.59,47.59,47.59,0,0,0,83.79-30.59V70.31A11.54,11.54,0,0,0,537,58.78Z"/><path class="cls-1" d="M359,117.11a59,59,0,0,1-118.07,0V11.51a11.65,11.65,0,0,1,23.29,0V70.07a59.1,59.1,0,0,1,94.78,47Zm-23.29,0a35.75,35.75,0,0,0-71.49-.24v.24a35.75,35.75,0,1,0,71.49,0Z"/><path class="cls-1" d="M674.17,110.29v54.56a11.79,11.79,0,0,1-11.76,11.76,11.59,11.59,0,0,1-11.52-11.76V110.29a28.58,28.58,0,0,0-57.15,0v54.56a11.64,11.64,0,1,1-23.28,0V11.75a11.64,11.64,0,0,1,23.28,0V67a51.35,51.35,0,0,1,28.46-8.46A51.94,51.94,0,0,1,674.17,110.29Z"/><path class="cls-1" d="M814.87,117.58a11.59,11.59,0,0,1-11.76,11.52H722a35.86,35.86,0,0,0,33.87,24.23,46.15,46.15,0,0,0,26.34-7.76c5.41-3.53,12.7-.24,15.52,5.4,2.82,5.88-.23,12-5.64,15.53-15.52,10.35-27.52,10.11-36.22,10.11a59,59,0,0,1,0-118.06C784.3,58.55,814.87,79.25,814.87,117.58ZM722,105.82h68c-4.94-16.46-20-24-34.1-24A36,36,0,0,0,722,105.82Z"/><path class="cls-1" d="M955.8,117.58A11.59,11.59,0,0,1,944,129.1H862.91a35.84,35.84,0,0,0,33.86,24.23,46.15,46.15,0,0,0,26.34-7.76c5.41-3.53,12.7-.24,15.52,5.4,2.83,5.88-.23,12-5.64,15.53-15.52,10.35-27.52,10.11-36.22,10.11a59,59,0,1,1,0-118.06C925.23,58.55,955.8,79.25,955.8,117.58Zm-92.89-11.76h68c-4.94-16.46-20-24-34.1-24A35.93,35.93,0,0,0,862.91,105.82Z"/><path class="cls-1" d="M976.72,165.09V12A11.64,11.64,0,0,1,1000,12V165.09a11.64,11.64,0,1,1-23.28,0Z"/></svg>