<?xml version="1.0" encoding="UTF-8"?>
<svg width="164px" height="30px" viewBox="0 0 164 30" version="1.1" xmlns="http://www.w3.org/2000/svg" xmlns:xlink="http://www.w3.org/1999/xlink">
    <!-- Generator: Sketch 48.2 (47327) - http://www.bohemiancoding.com/sketch -->
    <title>Page 1</title>
    <desc>Created with Sketch.</desc>
    <defs>
        <polygon id="path-1" points="0.321501923 0.0433694444 28.2617327 0.0433694444 28.2617327 19.5 0.321501923 19.5"></polygon>
        <polygon id="path-3" points="0.000686111111 0.106666667 19.4573528 0.106666667 19.4573528 29.8804815 0.000686111111 29.8804815"></polygon>
        <polygon id="path-5" points="159.292237 0.185851852 163.276875 0.185851852 163.276875 29.9999259 159.292237 29.9999259"></polygon>
    </defs>
    <g id="Homepage" stroke="none" stroke-width="1" fill="none" fill-rule="evenodd" transform="translate(-36.000000, -36.000000)">
        <g id="Page-1" transform="translate(36.000000, 36.000000)">
            <path d="M16.5,17.7837338 L16.5,26.5994807 C16.5,27.6637432 15.6393214,28.5 14.629096,28.5 C13.6188706,28.5 12.7958401,27.6637432 12.7958401,26.5994807 L12.7958401,17.7837338 C12.7958401,15.2377885 10.7380897,13.1860916 8.23135022,13.1860916 C5.72461074,13.1860916 3.70415989,15.2377885 3.70415989,17.7837338 L3.70415989,26.5994807 C3.70415989,27.6637432 2.88112944,28.5 1.83325587,28.5 C0.823030444,28.5 0,27.6637432 0,26.5994807 L0,1.86192825 C0,0.835902755 0.823030444,0 1.83325587,0 C2.88112944,0 3.70415989,0.835902755 3.70415989,1.86192825 L3.70415989,10.7920321 C5.01347897,9.91789237 6.54764118,9.42399811 8.23135022,9.42399811 C12.7958401,9.42399811 16.5,13.1860916 16.5,17.7837338" id="Fill-1" fill="#052464"></path>
            <path d="M36,12.4033129 L36,22.1533129 L36,22.1923998 C35.9593848,26.5038976 32.2926338,30 27.7296924,30 C23.2073662,30 19.5409947,26.5038976 19.5,22.1923998 L19.5,22.1533129 L19.5,12.4033129 C19.5,11.3548441 20.39657,10.5 21.4965953,10.5 C22.6372357,10.5 23.5334261,11.3548441 23.5334261,12.4033129 L23.5334261,22.114588 C23.5334261,24.3287862 25.4074168,26.1542873 27.7296924,26.1542873 C30.0925832,26.1542873 31.9669535,24.3287862 31.9669535,22.114588 L31.9669535,12.4033129 C31.9669535,11.3548441 32.8631438,10.5 34.0037843,10.5 C35.1038096,10.5 36,11.3548441 36,12.4033129" id="Fill-3" fill="#052464"></path>
            <g id="Group-7" transform="translate(61.500000, 10.500000)">
                <mask id="mask-2" fill="white">
                    <use xlink:href="#path-1"></use>
                </mask>
                <g id="Clip-6"></g>
                <path d="M26.340175,0.0433694444 C25.2421942,0.0433694444 24.3795212,0.895952778 24.3795212,1.94245278 L24.3795212,11.6321472 C24.3795212,13.841425 22.5752519,15.6628694 20.3007327,15.6628694 C18.065675,15.6628694 16.2617712,13.841425 16.2617712,11.6321472 L16.2617712,1.94245278 C16.2617712,0.895952778 15.3987327,0.0433694444 14.3007519,0.0433694444 C14.2974635,0.0433694444 14.2945404,0.0440916667 14.2916173,0.0440916667 C14.2886942,0.0440916667 14.2857712,0.0433694444 14.2824827,0.0433694444 C13.1845019,0.0433694444 12.3218288,0.895952778 12.3218288,1.94245278 L12.3218288,11.6321472 C12.3218288,13.841425 10.5175596,15.6628694 8.24304038,15.6628694 C6.00798269,15.6628694 4.20407885,13.841425 4.20407885,11.6321472 L4.20407885,1.94245278 C4.20407885,0.895952778 3.34104038,0.0433694444 2.24305962,0.0433694444 C1.184175,0.0433694444 0.321501923,0.895952778 0.321501923,1.94245278 L0.321501923,11.6707861 L0.321501923,11.7097861 C0.360598077,16.0117028 3.89021346,19.5000361 8.24304038,19.5000361 C10.6717519,19.5000361 12.8330019,18.430425 14.2897904,16.7498139 C15.7425596,18.430425 17.8939442,19.5000361 20.3007327,19.5000361 C24.6930212,19.5000361 28.2226365,16.0117028 28.2617327,11.7097861 L28.2617327,11.6707861 L28.2617327,1.94245278 C28.2617327,0.895952778 27.3990596,0.0433694444 26.340175,0.0433694444" id="Fill-5" fill="#052464" mask="url(#mask-2)"></path>
            </g>
            <g id="Group-10" transform="translate(39.000000, 0.000000)">
                <mask id="mask-4" fill="white">
                    <use xlink:href="#path-3"></use>
                </mask>
                <g id="Clip-9"></g>
                <path d="M15.6201861,19.9030741 C15.6201861,16.5638148 12.9844361,13.8608519 9.72901944,13.8608519 C6.47324167,13.8608519 3.83785278,16.5638148 3.83785278,19.8634444 L3.83785278,19.9030741 C3.83785278,23.2423333 6.47324167,25.9452963 9.72901944,25.9452963 C12.9844361,25.9452963 15.6201861,23.2023333 15.6201861,19.9030741 M19.4573528,19.9030741 C19.4573528,25.389 15.116075,29.8804815 9.72901944,29.8804815 C4.38024167,29.8804815 0.000686111111,25.389 0.000686111111,19.9030741 L0.000686111111,19.8634444 L0.000686111111,2.05455556 C0.000686111111,0.981222222 0.853269444,0.106407407 1.93840833,0.106407407 C2.98490833,0.106407407 3.83785278,0.981222222 3.83785278,2.05455556 L3.83785278,11.9523333 C5.46538056,10.6808519 7.51974167,9.9252963 9.72901944,9.9252963 C15.116075,9.9252963 19.4573528,14.3775185 19.4573528,19.9030741" id="Fill-8" fill="#052464" mask="url(#mask-4)"></path>
            </g>
            <path d="M109.5,19.2837338 L109.5,28.0994807 C109.5,29.1637432 108.639321,30 107.629096,30 C106.618871,30 105.79584,29.1637432 105.79584,28.0994807 L105.79584,19.2837338 C105.79584,16.7377885 103.73809,14.6860916 101.23135,14.6860916 C98.7246107,14.6860916 96.7041599,16.7377885 96.7041599,19.2837338 L96.7041599,28.0994807 C96.7041599,29.1637432 95.8811294,30 94.8336045,30 C93.8230304,30 93,29.1637432 93,28.0994807 L93,3.36192825 C93,2.33590276 93.8230304,1.5 94.8336045,1.5 C95.8811294,1.5 96.7041599,2.33590276 96.7041599,3.36192825 L96.7041599,12.2920321 C98.0138276,11.4178924 99.5476412,10.9239981 101.23135,10.9239981 C105.79584,10.9239981 109.5,14.6860916 109.5,19.2837338" id="Fill-11" fill="#052464"></path>
            <path d="M118.156236,18.3075711 L129.382489,18.3075711 C128.566732,15.5885111 126.080735,14.3456983 123.75,14.3456983 C121.147467,14.3456983 118.971993,16.0159315 118.156236,18.3075711 M133.5,20.2499636 C133.5,21.2987904 132.645156,22.1532694 131.5576,22.1532694 L118.156236,22.1532694 C118.971993,24.4839957 121.147467,26.1545908 123.75,26.1545908 C124.643569,26.1545908 126.235997,26.0767793 128.100585,24.8723294 C128.993792,24.2896479 130.197884,24.8332427 130.664393,25.7655332 C131.13054,26.7369105 130.625306,27.7470125 129.731737,28.3293321 C127.168291,30.038652 125.187166,29.9999272 123.75,29.9999272 C118.350585,29.9999272 114,25.6102721 114,20.2499636 C114,14.8502065 118.350585,10.5 123.75,10.5 C128.450195,10.5 133.5,13.9182779 133.5,20.2499636" id="Fill-13" fill="#052464"></path>
            <path d="M140.656236,18.3075711 L151.882489,18.3075711 C151.066732,15.5885111 148.580735,14.3456983 146.25,14.3456983 C143.647467,14.3456983 141.471993,16.0159315 140.656236,18.3075711 M156,20.2499636 C156,21.2987904 155.145156,22.1532694 154.0576,22.1532694 L140.656236,22.1532694 C141.471993,24.4839957 143.647467,26.1545908 146.25,26.1545908 C147.143569,26.1545908 148.735997,26.0767793 150.600585,24.8723294 C151.493792,24.2896479 152.697884,24.8332427 153.164393,25.7655332 C153.63054,26.7369105 153.125306,27.7470125 152.231737,28.3293321 C149.668291,30.038652 147.687166,29.9999272 146.25,29.9999272 C140.850585,29.9999272 136.5,25.6102721 136.5,20.2499636 C136.5,14.8502065 140.850585,10.5 146.25,10.5 C150.950195,10.5 156,13.9182779 156,20.2499636" id="Fill-15" fill="#052464"></path>
            <mask id="mask-6" fill="white">
                <use xlink:href="#path-5"></use>
            </mask>
            <g id="Clip-18"></g>
            <path d="M159.292237,28.0121481 L159.292237,2.13362963 C159.292237,1.0602963 160.177612,0.185851852 161.304487,0.185851852 C162.391612,0.185851852 163.276987,1.0602963 163.276987,2.13362963 L163.276987,28.0121481 C163.276987,29.1254815 162.391612,29.9999259 161.304487,29.9999259 C160.177612,29.9999259 159.292237,29.1254815 159.292237,28.0121481" id="Fill-17" fill="#052464" mask="url(#mask-6)"></path>
        </g>
    </g>
</svg>