<?xml version="1.0" encoding="UTF-8"?>
<svg width="64px" height="64px" viewBox="0 0 64 64" version="1.1" xmlns="http://www.w3.org/2000/svg" xmlns:xlink="http://www.w3.org/1999/xlink">
    <!-- Generator: Sketch 49.3 (51167) - http://www.bohemiancoding.com/sketch -->
    <title>icon/open-panel</title>
    <desc>Created with Sketch.</desc>
    <defs></defs>
    <g id="Page-1" stroke="none" stroke-width="1" fill="none" fill-rule="evenodd">
        <g id="Customization/Panel-closed" transform="translate(-1302.000000, 0.000000)">
            <g id="icon/open-panel" transform="translate(1302.000000, 0.000000)">
                <rect id="Rectangle-2" fill="#FFFFFF" fill-rule="evenodd" opacity="0.799999952" x="0" y="0" width="64" height="64"></rect>
                <path d="M36.164,23.2994504 C35.8208,22.9535165 35.2496,22.9535165 34.8944,23.2994504 C34.5512,23.6336974 34.5512,24.1899965 34.8944,24.5234643 L41.332,30.793127 L20.0888,30.793127 C19.5936,30.7939061 19.2,31.1772383 19.2,31.65952 C19.2,32.1418017 19.5936,32.5376 20.0888,32.5376 L41.332,32.5376 L34.8944,38.7955757 C34.5512,39.1415096 34.5512,39.6985878 34.8944,40.0320557 C35.2496,40.3779896 35.8216,40.3779896 36.164,40.0320557 L44.1256,32.2781496 C44.4808,31.9439026 44.4808,31.3876035 44.1256,31.0541357 L36.164,23.2994504 Z" id="Shape" fill="#052464" fill-rule="nonzero" transform="translate(31.796000, 31.665753) scale(-1, 1) translate(-31.796000, -31.665753) "></path>
            </g>
        </g>
    </g>
</svg>