<?xml version="1.0" encoding="UTF-8"?>
<svg width="15px" height="15px" viewBox="0 0 15 15" version="1.1" xmlns="http://www.w3.org/2000/svg" xmlns:xlink="http://www.w3.org/1999/xlink">
    <!-- Generator: Sketch 49.3 (51167) - http://www.bohemiancoding.com/sketch -->
    <title>icon/pinterest</title>
    <desc>Created with Sketch.</desc>
    <defs></defs>
    <g id="Page-1" stroke="none" stroke-width="1" fill="none" fill-rule="evenodd">
        <g id="Customization/Panel-opened" transform="translate(-1258.000000, -733.000000)" fill="#AEAEAE" fill-rule="nonzero">
            <g id="share" transform="translate(1137.000000, 731.000000)">
                <g id="social-links" transform="translate(46.000000, 2.000000)">
                    <g id="icon/pinterest" transform="translate(75.000000, 0.000000)">
                        <path d="M15,1.60714286 L15,13.3928571 C15,14.2801339 14.2801339,15 13.3928571,15 L5.16964286,15 C5.49776786,14.4508929 5.91964286,13.6607143 6.08705357,13.0145089 C6.1875,12.6294643 6.59933036,11.0591518 6.59933036,11.0591518 C6.8671875,11.5714286 7.65066964,12.0033482 8.484375,12.0033482 C10.9654018,12.0033482 12.75,9.72321429 12.75,6.890625 C12.75,4.17522321 10.5334821,2.14285714 7.68080357,2.14285714 C4.13169643,2.14285714 2.25,4.5234375 2.25,7.11830357 C2.25,8.32366071 2.89285714,9.82366071 3.91741071,10.3024554 C4.07477679,10.3761161 4.15513393,10.3426339 4.19196429,10.1919643 C4.21875,10.078125 4.359375,9.51897321 4.41964286,9.26116071 C4.43973214,9.17745536 4.4296875,9.10714286 4.36272321,9.02678571 C4.02455357,8.61495536 3.75,7.85825893 3.75,7.15178571 C3.75,5.33705357 5.12276786,3.58258929 7.46316964,3.58258929 C9.48214286,3.58258929 10.8984375,4.95870536 10.8984375,6.92745536 C10.8984375,9.15066964 9.77678571,10.6908482 8.31361607,10.6908482 C7.50669643,10.6908482 6.90401786,10.0245536 7.09486607,9.20424107 C7.32589286,8.2265625 7.77455357,7.171875 7.77455357,6.46540179 C7.77455357,4.69084821 5.24665179,4.93526786 5.24665179,7.30245536 C5.24665179,8.02901786 5.49107143,8.52455357 5.49107143,8.52455357 C4.43973214,12.9709821 4.28236607,13.0279018 4.5,14.9732143 L4.57366071,15 L1.60714286,15 C0.719866071,15 0,14.2801339 0,13.3928571 L0,1.60714286 C0,0.719866071 0.719866071,0 1.60714286,0 L13.3928571,0 C14.2801339,0 15,0.719866071 15,1.60714286 Z" id="Shape"></path>
                    </g>
                </g>
            </g>
        </g>
    </g>
</svg>