<?xml version="1.0" encoding="UTF-8"?>
<svg width="15px" height="15px" viewBox="0 0 15 15" version="1.1" xmlns="http://www.w3.org/2000/svg" xmlns:xlink="http://www.w3.org/1999/xlink">
    <!-- Generator: Sketch 49.3 (51167) - http://www.bohemiancoding.com/sketch -->
    <title>icon/twitter</title>
    <desc>Created with Sketch.</desc>
    <defs></defs>
    <g id="Page-1" stroke="none" stroke-width="1" fill="none" fill-rule="evenodd">
        <g id="Customization/Panel-opened" transform="translate(-1208.000000, -733.000000)" fill="#AEAEAE" fill-rule="nonzero">
            <g id="share" transform="translate(1137.000000, 731.000000)">
                <g id="social-links" transform="translate(46.000000, 2.000000)">
                    <g id="icon/twitter" transform="translate(25.000000, 0.000000)">
                        <path d="M13.3928571,0 L1.60714286,0 C0.719866071,0 0,0.719866071 0,1.60714286 L0,13.3928571 C0,14.2801339 0.719866071,15 1.60714286,15 L13.3928571,15 C14.2801339,15 15,14.2801339 15,13.3928571 L15,1.60714286 C15,0.719866071 14.2801339,0 13.3928571,0 Z M11.7555804,5.31696429 C11.7622768,5.41071429 11.7622768,5.5078125 11.7622768,5.6015625 C11.7622768,8.50446429 9.55245536,11.8493304 5.51450893,11.8493304 C4.26897321,11.8493304 3.11383929,11.4877232 2.14285714,10.8649554 C2.3203125,10.8850446 2.49107143,10.8917411 2.671875,10.8917411 C3.69977679,10.8917411 4.64397321,10.5435268 5.39732143,9.95424107 C4.43303571,9.93415179 3.62276786,9.30133929 3.34486607,8.43080357 C3.68303571,8.48102679 3.98772321,8.48102679 4.3359375,8.390625 C3.33147321,8.18638393 2.578125,7.30245536 2.578125,6.234375 L2.578125,6.20758929 C2.86941964,6.37165179 3.2109375,6.47209821 3.56919643,6.48549107 C2.95742684,6.07856141 2.59031497,5.39211251 2.59151786,4.65736607 C2.59151786,4.24888393 2.69866071,3.87388393 2.88950893,3.54910714 C3.97098214,4.88169643 5.59486607,5.75223214 7.41629464,5.84598214 C7.10491071,4.35602679 8.21986607,3.14732143 9.55915179,3.14732143 C10.1919643,3.14732143 10.7611607,3.41183036 11.1629464,3.84040179 C11.6584821,3.74665179 12.1339286,3.5625 12.5558036,3.31138393 C12.3917411,3.8203125 12.046875,4.24888393 11.5915179,4.52008929 C12.0334821,4.47321429 12.4620536,4.34933036 12.8571429,4.17857143 C12.5591518,4.6171875 12.1841518,5.00558036 11.7555804,5.31696429 Z" id="Shape"></path>
                    </g>
                </g>
            </g>
        </g>
    </g>
</svg>